# Blender 3.3.0
# www.blender.org
mtllib cabine.mtl
o Cabine
v -1.604909 -2.209377 1.604909
v -1.604909 2.209377 1.604909
v -1.604909 -2.209377 -1.604909
v -1.604909 2.209377 -1.604909
v 1.604909 -2.209377 1.604909
v 1.604909 2.209377 1.604909
v 1.604909 -2.209377 -1.604909
v 1.604909 2.209377 -1.604909
vn -1.0000 -0.0000 -0.0000
vn -0.0000 -0.0000 -1.0000
vn 1.0000 -0.0000 -0.0000
vn -0.0000 -0.0000 1.0000
vn -0.0000 -1.0000 -0.0000
vn -0.0000 1.0000 -0.0000
s 0
usemtl Cabine
f 2//1 3//1 1//1
f 4//2 7//2 3//2
f 8//3 5//3 7//3
f 6//4 1//4 5//4
f 7//5 1//5 3//5
f 4//6 6//6 8//6
f 2//1 4//1 3//1
f 4//2 8//2 7//2
f 8//3 6//3 5//3
f 6//4 2//4 1//4
f 7//5 5//5 1//5
f 4//6 2//6 6//6
o Bras
v -0.158812 2.012657 0.106691
v -0.158812 4.107946 0.066519
v -0.158812 2.012657 -0.159512
v -0.158812 3.917368 -0.119340
v 0.158812 2.012657 0.106691
v 0.158812 4.107946 0.066519
v 0.158812 2.012657 -0.159512
v 0.158812 3.917368 -0.119340
v -0.158812 4.683316 -0.523459
v -0.158812 4.492738 -0.709318
v 0.158812 4.492738 -0.709318
v 0.158812 4.683316 -0.523459
v -0.137811 4.736769 -1.123366
v -0.137811 4.546191 -1.309226
v 0.179814 4.546191 -1.309226
v 0.179814 4.736769 -1.123366
vn -1.0000 -0.0000 -0.0000
vn -0.0000 0.0211 -0.9998
vn 1.0000 -0.0000 -0.0000
vn -0.0000 0.0192 0.9998
vn -0.0000 -1.0000 -0.0000
vn -0.9990 0.0314 -0.0322
vn -0.0000 0.7159 0.6982
vn -0.0000 -0.7159 -0.6982
vn -0.0000 0.6982 -0.7159
vn -0.0000 0.9961 0.0888
vn -0.0000 -0.9961 -0.0887
vn 0.9990 -0.0314 0.0322
s 0
usemtl Oeil
f 9//7 12//7 11//7
f 12//8 15//8 11//8
f 16//9 13//9 15//9
f 14//10 9//10 13//10
f 15//11 9//11 11//11
f 16//9 20//9 14//9
f 18//12 21//12 22//12
f 12//7 17//7 18//7
f 14//13 17//13 10//13
f 12//14 19//14 16//14
f 22//15 24//15 23//15
f 20//16 21//16 17//16
f 19//17 22//17 23//17
f 19//18 24//18 20//18
f 9//7 10//7 12//7
f 12//8 16//8 15//8
f 16//9 14//9 13//9
f 14//10 10//10 9//10
f 15//11 13//11 9//11
f 16//9 19//9 20//9
f 18//12 17//12 21//12
f 12//7 10//7 17//7
f 14//13 20//13 17//13
f 12//14 18//14 19//14
f 22//15 21//15 24//15
f 20//16 24//16 21//16
f 19//17 18//17 22//17
f 19//18 23//18 24//18
o Roues
v -0.958568 4.453868 -1.067170
v -0.958568 4.776328 -1.067170
v -0.958568 4.453868 -1.351409
v -0.958568 4.776328 -1.351409
v 0.958568 4.453868 -1.067170
v 0.958568 4.776328 -1.067170
v 0.958568 4.453868 -1.351409
v 0.958568 4.776328 -1.351409
vn -1.0000 -0.0000 -0.0000
vn -0.0000 -0.0000 -1.0000
vn 1.0000 -0.0000 -0.0000
vn -0.0000 -0.0000 1.0000
vn -0.0000 -1.0000 -0.0000
vn -0.0000 1.0000 -0.0000
s 0
usemtl Oeil
f 26//19 27//19 25//19
f 28//20 31//20 27//20
f 32//21 29//21 31//21
f 30//22 25//22 29//22
f 31//23 25//23 27//23
f 28//24 30//24 32//24
f 26//19 28//19 27//19
f 28//20 32//20 31//20
f 32//21 30//21 29//21
f 30//22 26//22 25//22
f 31//23 29//23 25//23
f 28//24 26//24 30//24
o Vitres
v -1.672890 -0.428810 1.288943
v -1.672890 1.703675 1.288943
v -1.672890 -0.428810 -1.288943
v -1.672890 1.703675 -1.288943
v 1.672890 -0.428810 1.288943
v 1.672890 1.703675 1.288943
v 1.672890 -0.428810 -1.288943
v 1.672890 1.703675 -1.288943
vn -1.0000 -0.0000 -0.0000
vn -0.0000 -0.0000 -1.0000
vn 1.0000 -0.0000 -0.0000
vn -0.0000 -0.0000 1.0000
vn -0.0000 -1.0000 -0.0000
vn -0.0000 1.0000 -0.0000
s 0
usemtl Vitre
f 34//25 35//25 33//25
f 36//26 39//26 35//26
f 40//27 37//27 39//27
f 38//28 33//28 37//28
f 39//29 33//29 35//29
f 36//30 38//30 40//30
f 34//25 36//25 35//25
f 36//26 40//26 39//26
f 40//27 38//27 37//27
f 38//28 34//28 33//28
f 39//29 37//29 33//29
f 36//30 34//30 38//30
o Porte
v -1.040023 -1.847009 1.658942
v -1.040023 1.847009 1.658942
v -1.040023 -1.847009 0.658942
v -1.040023 1.847009 0.658942
v -0.039862 -1.847009 1.658942
v -0.039862 1.847009 1.658942
v -0.039862 -1.847009 0.658942
v -0.039862 1.847009 0.658942
vn -1.0000 -0.0000 -0.0000
vn -0.0000 -0.0000 -1.0000
vn 1.0000 -0.0000 -0.0000
vn -0.0000 -0.0000 1.0000
vn -0.0000 -1.0000 -0.0000
vn -0.0000 1.0000 -0.0000
s 0
usemtl Porte
f 42//31 43//31 41//31
f 44//32 47//32 43//32
f 48//33 45//33 47//33
f 46//34 41//34 45//34
f 47//35 41//35 43//35
f 44//36 46//36 48//36
f 42//31 44//31 43//31
f 44//32 48//32 47//32
f 48//33 46//33 45//33
f 46//34 42//34 41//34
f 47//35 45//35 41//35
f 44//36 42//36 46//36
o Porte2
v 0.048861 -1.847009 1.658942
v 0.048861 1.847009 1.658942
v 0.048861 -1.847009 0.658942
v 0.048861 1.847009 0.658942
v 1.049022 -1.847009 1.658942
v 1.049022 1.847009 1.658942
v 1.049022 -1.847009 0.658942
v 1.049022 1.847009 0.658942
vn -1.0000 -0.0000 -0.0000
vn -0.0000 -0.0000 -1.0000
vn 1.0000 -0.0000 -0.0000
vn -0.0000 -0.0000 1.0000
vn -0.0000 -1.0000 -0.0000
vn -0.0000 1.0000 -0.0000
s 0
usemtl Porte
f 50//37 51//37 49//37
f 52//38 55//38 51//38
f 56//39 53//39 55//39
f 54//40 49//40 53//40
f 55//41 49//41 51//41
f 52//42 54//42 56//42
f 50//37 52//37 51//37
f 52//38 56//38 55//38
f 56//39 54//39 53//39
f 54//40 50//40 49//40
f 55//41 53//41 49//41
f 52//42 50//42 54//42
o Poignée
v 0.098913 -0.177515 1.695309
v 0.098913 0.152518 1.695309
v 0.098913 -0.177515 1.365276
v 0.098913 0.152518 1.365276
v 0.276047 -0.177515 1.695309
v 0.276047 0.152518 1.695309
v 0.276047 -0.177515 1.365276
v 0.276047 0.152518 1.365276
vn -1.0000 -0.0000 -0.0000
vn -0.0000 -0.0000 -1.0000
vn 1.0000 -0.0000 -0.0000
vn -0.0000 -0.0000 1.0000
vn -0.0000 -1.0000 -0.0000
vn -0.0000 1.0000 -0.0000
s 0
usemtl Oeil
f 58//43 59//43 57//43
f 60//44 63//44 59//44
f 64//45 61//45 63//45
f 62//46 57//46 61//46
f 63//47 57//47 59//47
f 60//48 62//48 64//48
f 58//43 60//43 59//43
f 60//44 64//44 63//44
f 64//45 62//45 61//45
f 62//46 58//46 57//46
f 63//47 61//47 57//47
f 60//48 58//48 62//48
