# Blender 3.3.0
# www.blender.org
mtllib luge.mtl
o Luge.011
v 0.027960 -0.016906 0.317363
v 0.027960 0.016906 0.317363
v 0.027960 -0.016906 -0.317363
v 0.027960 0.016906 -0.317363
v -0.027960 -0.016906 0.317363
v -0.027960 0.016906 0.317363
v -0.027960 -0.016906 -0.317363
v -0.027960 0.016906 -0.317363
v -0.438553 -0.281871 -0.305638
v -0.438553 -0.200635 -0.305638
v -0.438553 -0.281871 -0.382062
v -0.438553 -0.200635 -0.382062
v 0.812071 -0.281871 -0.305638
v 0.812071 -0.200635 -0.305638
v 0.812071 -0.281871 -0.382062
v 0.812071 -0.200635 -0.382062
v -0.523765 -0.229750 -0.382062
v -0.523765 -0.229750 -0.305638
v -0.519702 -0.148514 -0.305638
v -0.519702 -0.148514 -0.382062
v -0.585186 -0.142973 -0.382062
v -0.585186 -0.142973 -0.305638
v -0.574747 -0.061737 -0.305638
v -0.574747 -0.061737 -0.382062
v -0.646362 0.049982 -0.382062
v -0.646362 0.049982 -0.305638
v -0.617604 0.058142 -0.305638
v -0.617604 0.058142 -0.382062
v -0.438553 -0.281871 0.305638
v -0.438553 -0.200635 0.305638
v -0.438553 -0.281871 0.382062
v -0.438553 -0.200635 0.382062
v 0.812071 -0.281871 0.305638
v 0.812071 -0.200635 0.305638
v 0.812071 -0.281871 0.382062
v 0.812071 -0.200635 0.382062
v -0.523765 -0.229750 0.382062
v -0.523765 -0.229750 0.305638
v -0.519702 -0.148514 0.305638
v -0.519702 -0.148514 0.382062
v -0.585186 -0.142973 0.382062
v -0.585186 -0.142973 0.305638
v -0.574747 -0.061737 0.305638
v -0.574747 -0.061737 0.382062
v -0.646362 0.049982 0.382062
v -0.646362 0.049982 0.305638
v -0.617604 0.058142 0.305638
v -0.617604 0.058142 0.382062
v -0.596229 -0.021191 -0.318532
v -0.614241 0.021858 -0.318532
v -0.596229 -0.021191 -0.368506
v -0.614241 0.021858 -0.368506
v 0.809485 -0.021191 -0.318532
v 0.809485 0.021858 -0.318532
v 0.809485 -0.021191 -0.368506
v 0.809485 0.021858 -0.368506
v -0.596229 -0.021191 0.369914
v -0.614241 0.021858 0.369914
v -0.596229 -0.021191 0.319941
v -0.614241 0.021858 0.319941
v 0.809485 -0.021191 0.369914
v 0.809485 0.021858 0.369914
v 0.809485 -0.021191 0.319941
v 0.809485 0.021858 0.319941
v -0.243951 -0.000859 0.320246
v -0.148685 -0.266767 0.320246
v -0.243951 -0.000859 0.367978
v -0.148685 -0.266767 0.367978
v -0.205510 0.012913 0.320246
v -0.110243 -0.252994 0.320246
v -0.205510 0.012913 0.367978
v -0.110243 -0.252994 0.367978
v 0.303243 -0.000859 0.320246
v 0.398510 -0.266767 0.320246
v 0.303243 -0.000859 0.367978
v 0.398510 -0.266767 0.367978
v 0.341685 0.012913 0.320246
v 0.436951 -0.252994 0.320246
v 0.341685 0.012913 0.367978
v 0.436951 -0.252994 0.367978
v 0.303243 -0.000859 -0.367978
v 0.398510 -0.266767 -0.367978
v 0.303243 -0.000859 -0.320246
v 0.398510 -0.266767 -0.320246
v 0.341685 0.012913 -0.367978
v 0.436951 -0.252994 -0.367978
v 0.341685 0.012913 -0.320246
v 0.436951 -0.252994 -0.320246
v -0.243951 -0.000859 -0.367978
v -0.148685 -0.266767 -0.367978
v -0.243951 -0.000859 -0.320246
v -0.148685 -0.266767 -0.320246
v -0.205510 0.012913 -0.367978
v -0.110243 -0.252994 -0.367978
v -0.205510 0.012913 -0.320246
v -0.110243 -0.252994 -0.320246
v 0.192154 -0.016906 0.317363
v 0.192154 0.016906 0.317363
v 0.192154 -0.016906 -0.317363
v 0.192154 0.016906 -0.317363
v 0.136234 -0.016906 0.317363
v 0.136234 0.016906 0.317363
v 0.136234 -0.016906 -0.317363
v 0.136234 0.016906 -0.317363
v 0.359249 -0.016906 0.317363
v 0.359249 0.016906 0.317363
v 0.359249 -0.016906 -0.317363
v 0.359249 0.016906 -0.317363
v 0.303330 -0.016906 0.317363
v 0.303330 0.016906 0.317363
v 0.303330 -0.016906 -0.317363
v 0.303330 0.016906 -0.317363
v 0.515743 -0.016906 0.317363
v 0.515743 0.016906 0.317363
v 0.515743 -0.016906 -0.317363
v 0.515743 0.016906 -0.317363
v 0.459824 -0.016906 0.317363
v 0.459824 0.016906 0.317363
v 0.459824 -0.016906 -0.317363
v 0.459824 0.016906 -0.317363
v 0.649572 -0.016906 0.317363
v 0.649572 0.016906 0.317363
v 0.649572 -0.016906 -0.317363
v 0.649572 0.016906 -0.317363
v 0.593652 -0.016906 0.317363
v 0.593652 0.016906 0.317363
v 0.593652 -0.016906 -0.317363
v 0.593652 0.016906 -0.317363
v -0.135175 -0.016906 0.317363
v -0.135175 0.016906 0.317363
v -0.135175 -0.016906 -0.317363
v -0.135175 0.016906 -0.317363
v -0.191095 -0.016906 0.317363
v -0.191095 0.016906 0.317363
v -0.191095 -0.016906 -0.317363
v -0.191095 0.016906 -0.317363
v -0.297849 -0.016906 0.317363
v -0.297849 0.016906 0.317363
v -0.297849 -0.016906 -0.317363
v -0.297849 0.016906 -0.317363
v -0.353768 -0.016906 0.317363
v -0.353768 0.016906 0.317363
v -0.353768 -0.016906 -0.317363
v -0.353768 0.016906 -0.317363
v 0.613053 -0.012764 -0.027960
v 0.613053 0.012764 -0.027960
v -0.326974 -0.012764 -0.027960
v -0.326974 0.012764 -0.027960
v 0.613053 -0.012764 0.027960
v 0.613053 0.012764 0.027960
v -0.326974 -0.012764 0.027960
v -0.326974 0.012764 0.027960
v 0.613053 -0.012764 -0.191833
v 0.613053 0.012764 -0.191833
v -0.326974 -0.012764 -0.191832
v -0.326974 0.012764 -0.191832
v 0.613053 -0.012764 -0.135913
v 0.613053 0.012764 -0.135913
v -0.326974 -0.012764 -0.135913
v -0.326974 0.012764 -0.135913
v 0.613053 -0.012764 0.140415
v 0.613053 0.012764 0.140415
v -0.326974 -0.012764 0.140415
v -0.326974 0.012764 0.140415
v 0.613053 -0.012764 0.196335
v 0.613053 0.012764 0.196335
v -0.326974 -0.012764 0.196335
v -0.326974 0.012764 0.196335
vn -1.0000 -0.0000 -0.0000
vn -0.0000 -0.0000 1.0000
vn 1.0000 -0.0000 -0.0000
vn -0.0000 -0.0000 -1.0000
vn -0.0000 1.0000 -0.0000
vn -0.0000 -1.0000 -0.0000
vn 0.5404 0.8414 -0.0000
vn -0.5218 -0.8531 -0.0000
vn -0.9532 -0.3022 -0.0000
vn 0.8444 0.5356 -0.0000
vn -0.8162 -0.5777 -0.0000
vn -0.2730 0.9620 -0.0000
vn 0.9416 0.3366 -0.0000
vn -0.9414 -0.3373 -0.0000
vn 0.9414 0.3373 -0.0000
vn -0.3373 0.9414 -0.0000
vn 0.3373 -0.9414 -0.0000
s 0
usemtl Bois.002
f 2//1 3//1 1//1
f 4//2 7//2 3//2
f 8//3 5//3 7//3
f 6//4 1//4 5//4
f 7//5 1//5 3//5
f 4//6 6//6 8//6
f 12//7 19//7 10//7
f 12//4 15//4 11//4
f 16//3 13//3 15//3
f 14//2 9//2 13//2
f 15//6 9//6 11//6
f 12//5 14//5 16//5
f 20//4 21//4 24//4
f 9//8 17//8 11//8
f 12//4 17//4 20//4
f 10//2 18//2 9//2
f 22//9 25//9 21//9
f 19//2 22//2 18//2
f 20//10 23//10 19//10
f 18//11 21//11 17//11
f 27//12 25//12 26//12
f 24//4 25//4 28//4
f 23//2 26//2 22//2
f 24//13 27//13 23//13
f 39//7 32//7 30//7
f 35//2 32//2 31//2
f 33//3 36//3 35//3
f 29//4 34//4 33//4
f 29//6 35//6 31//6
f 34//5 32//5 36//5
f 40//2 41//2 37//2
f 37//8 29//8 31//8
f 32//2 37//2 31//2
f 38//4 30//4 29//4
f 45//9 42//9 41//9
f 42//4 39//4 38//4
f 43//10 40//10 39//10
f 41//11 38//11 37//11
f 45//12 47//12 46//12
f 44//2 45//2 41//2
f 46//4 43//4 42//4
f 47//13 44//13 43//13
f 51//4 56//4 55//4
f 56//3 53//3 55//3
f 54//2 49//2 53//2
f 55//6 49//6 51//6
f 52//5 54//5 56//5
f 59//4 64//4 63//4
f 64//3 61//3 63//3
f 62//2 57//2 61//2
f 63//6 57//6 59//6
f 60//5 62//5 64//5
f 66//14 67//14 65//14
f 68//2 71//2 67//2
f 72//15 69//15 71//15
f 70//4 65//4 69//4
f 71//16 65//16 67//16
f 68//17 70//17 72//17
f 74//14 75//14 73//14
f 76//2 79//2 75//2
f 80//15 77//15 79//15
f 78//4 73//4 77//4
f 79//16 73//16 75//16
f 76//17 78//17 80//17
f 82//14 83//14 81//14
f 84//2 87//2 83//2
f 88//15 85//15 87//15
f 86//4 81//4 85//4
f 87//16 81//16 83//16
f 84//17 86//17 88//17
f 90//14 91//14 89//14
f 92//2 95//2 91//2
f 96//15 93//15 95//15
f 94//4 89//4 93//4
f 95//16 89//16 91//16
f 92//17 94//17 96//17
f 98//1 99//1 97//1
f 100//2 103//2 99//2
f 104//3 101//3 103//3
f 102//4 97//4 101//4
f 103//5 97//5 99//5
f 100//6 102//6 104//6
f 106//1 107//1 105//1
f 108//2 111//2 107//2
f 112//3 109//3 111//3
f 110//4 105//4 109//4
f 111//5 105//5 107//5
f 108//6 110//6 112//6
f 114//1 115//1 113//1
f 116//2 119//2 115//2
f 120//3 117//3 119//3
f 118//4 113//4 117//4
f 119//5 113//5 115//5
f 116//6 118//6 120//6
f 122//1 123//1 121//1
f 124//2 127//2 123//2
f 128//3 125//3 127//3
f 126//4 121//4 125//4
f 127//5 121//5 123//5
f 124//6 126//6 128//6
f 130//1 131//1 129//1
f 132//2 135//2 131//2
f 136//3 133//3 135//3
f 134//4 129//4 133//4
f 135//5 129//5 131//5
f 132//6 134//6 136//6
f 138//1 139//1 137//1
f 140//2 143//2 139//2
f 144//3 141//3 143//3
f 142//4 137//4 141//4
f 143//5 137//5 139//5
f 140//6 142//6 144//6
f 146//2 147//2 145//2
f 148//3 151//3 147//3
f 152//4 149//4 151//4
f 150//1 145//1 149//1
f 151//5 145//5 147//5
f 148//6 150//6 152//6
f 154//2 155//2 153//2
f 156//3 159//3 155//3
f 160//4 157//4 159//4
f 158//1 153//1 157//1
f 159//5 153//5 155//5
f 156//6 158//6 160//6
f 162//2 163//2 161//2
f 164//3 167//3 163//3
f 168//4 165//4 167//4
f 166//1 161//1 165//1
f 167//5 161//5 163//5
f 168//6 162//6 166//6
f 2//1 4//1 3//1
f 4//2 8//2 7//2
f 8//3 6//3 5//3
f 6//4 2//4 1//4
f 7//5 5//5 1//5
f 4//6 2//6 6//6
f 12//7 20//7 19//7
f 12//4 16//4 15//4
f 16//3 14//3 13//3
f 14//2 10//2 9//2
f 15//6 13//6 9//6
f 12//5 10//5 14//5
f 20//4 17//4 21//4
f 9//8 18//8 17//8
f 12//4 11//4 17//4
f 10//2 19//2 18//2
f 22//9 26//9 25//9
f 19//2 23//2 22//2
f 20//10 24//10 23//10
f 18//11 22//11 21//11
f 27//12 28//12 25//12
f 24//4 21//4 25//4
f 23//2 27//2 26//2
f 24//13 28//13 27//13
f 39//7 40//7 32//7
f 35//2 36//2 32//2
f 33//3 34//3 36//3
f 29//4 30//4 34//4
f 29//6 33//6 35//6
f 34//5 30//5 32//5
f 40//2 44//2 41//2
f 37//8 38//8 29//8
f 32//2 40//2 37//2
f 38//4 39//4 30//4
f 45//9 46//9 42//9
f 42//4 43//4 39//4
f 43//10 44//10 40//10
f 41//11 42//11 38//11
f 45//12 48//12 47//12
f 44//2 48//2 45//2
f 46//4 47//4 43//4
f 47//13 48//13 44//13
f 51//4 52//4 56//4
f 56//3 54//3 53//3
f 54//2 50//2 49//2
f 55//6 53//6 49//6
f 52//5 50//5 54//5
f 59//4 60//4 64//4
f 64//3 62//3 61//3
f 62//2 58//2 57//2
f 63//6 61//6 57//6
f 60//5 58//5 62//5
f 66//14 68//14 67//14
f 68//2 72//2 71//2
f 72//15 70//15 69//15
f 70//4 66//4 65//4
f 71//16 69//16 65//16
f 68//17 66//17 70//17
f 74//14 76//14 75//14
f 76//2 80//2 79//2
f 80//15 78//15 77//15
f 78//4 74//4 73//4
f 79//16 77//16 73//16
f 76//17 74//17 78//17
f 82//14 84//14 83//14
f 84//2 88//2 87//2
f 88//15 86//15 85//15
f 86//4 82//4 81//4
f 87//16 85//16 81//16
f 84//17 82//17 86//17
f 90//14 92//14 91//14
f 92//2 96//2 95//2
f 96//15 94//15 93//15
f 94//4 90//4 89//4
f 95//16 93//16 89//16
f 92//17 90//17 94//17
f 98//1 100//1 99//1
f 100//2 104//2 103//2
f 104//3 102//3 101//3
f 102//4 98//4 97//4
f 103//5 101//5 97//5
f 100//6 98//6 102//6
f 106//1 108//1 107//1
f 108//2 112//2 111//2
f 112//3 110//3 109//3
f 110//4 106//4 105//4
f 111//5 109//5 105//5
f 108//6 106//6 110//6
f 114//1 116//1 115//1
f 116//2 120//2 119//2
f 120//3 118//3 117//3
f 118//4 114//4 113//4
f 119//5 117//5 113//5
f 116//6 114//6 118//6
f 122//1 124//1 123//1
f 124//2 128//2 127//2
f 128//3 126//3 125//3
f 126//4 122//4 121//4
f 127//5 125//5 121//5
f 124//6 122//6 126//6
f 130//1 132//1 131//1
f 132//2 136//2 135//2
f 136//3 134//3 133//3
f 134//4 130//4 129//4
f 135//5 133//5 129//5
f 132//6 130//6 134//6
f 138//1 140//1 139//1
f 140//2 144//2 143//2
f 144//3 142//3 141//3
f 142//4 138//4 137//4
f 143//5 141//5 137//5
f 140//6 138//6 142//6
f 146//2 148//2 147//2
f 148//3 152//3 151//3
f 152//4 150//4 149//4
f 150//1 146//1 145//1
f 151//5 149//5 145//5
f 148//6 146//6 150//6
f 154//2 156//2 155//2
f 156//3 160//3 159//3
f 160//4 158//4 157//4
f 158//1 154//1 153//1
f 159//5 157//5 153//5
f 156//6 154//6 158//6
f 162//2 164//2 163//2
f 164//3 168//3 167//3
f 168//4 166//4 165//4
f 166//1 162//1 161//1
f 167//5 165//5 161//5
f 168//6 164//6 162//6
