# Blender 3.3.0
# www.blender.org
mtllib roche.mtl
o Icosphere
v 0.723607 -0.447220 0.525725
v -0.501492 -0.577371 0.694216
v -0.986161 -0.233154 -0.057915
v -0.276388 -0.447220 -0.850649
v 0.723607 -0.447220 -0.525725
v 0.208840 0.343603 0.870058
v -0.561057 0.101616 -0.799080
v 0.230293 0.464760 -0.827132
v -0.088470 -0.994276 0.272289
v 0.425323 -0.850654 0.309011
v 0.262869 -0.525738 0.809012
v 0.850648 -0.525736 0.000000
v 0.425323 -0.850654 -0.309011
v -0.525730 -0.850652 0.000000
v -0.162456 -0.850654 -0.499995
v -0.688189 -0.525736 -0.499997
v 0.262869 -0.525738 -0.809012
v 0.951058 0.000000 0.309013
v 0.951058 0.000000 -0.309013
v 0.587786 0.000000 0.809017
v -0.951058 0.000000 0.309013
v -0.080294 -0.084403 0.987427
v 0.587786 0.000000 -0.809017
v 0.000000 0.000000 -1.000000
v 0.907388 0.326745 -0.053704
v 0.021562 0.509671 0.544772
v 0.707263 0.516997 0.337458
v -0.599969 0.396671 0.434885
vn 0.7002 -0.6617 0.2680
vn -0.2178 -0.9631 -0.1582
vn 0.0611 -0.9802 -0.1882
vn 0.9050 -0.3304 0.2680
vn -0.1041 -0.4412 0.8913
vn -0.8380 -0.4207 0.3475
vn -0.6022 -0.2408 -0.7611
vn 0.5346 -0.3304 -0.7779
vn 0.8026 -0.1256 0.5831
vn -0.3507 -0.0944 -0.9317
vn 0.8026 -0.1256 -0.5831
vn 0.1113 0.9096 0.4003
vn -0.4130 0.8827 -0.2241
vn 0.4223 0.8812 -0.2125
vn -0.1687 0.9840 -0.0579
vn -0.0216 0.9991 -0.0360
vn 0.7036 0.4935 -0.5112
vn 0.6900 0.5107 -0.5129
vn -0.2317 0.4379 -0.8686
vn -0.7753 0.6083 -0.1699
vn -0.6340 0.6787 -0.3706
vn -0.2440 0.6060 0.7571
vn -0.5693 0.5517 0.6095
vn 0.5520 0.4887 0.6756
vn 0.7638 0.3296 0.5549
vn 0.8799 0.4009 0.2552
vn 0.3030 0.1967 -0.9325
vn 0.3035 -0.1876 -0.9342
vn 0.0247 -0.3304 -0.9435
vn -0.8496 -0.0766 -0.5219
vn -0.5765 0.2650 0.7729
vn -0.6106 0.0517 0.7902
vn 0.2451 0.0989 0.9644
vn 0.2742 -0.1695 0.9466
vn 0.5346 -0.3304 0.7779
vn 0.9912 0.1325 -0.0000
vn 0.9822 -0.1876 -0.0000
vn 0.9050 -0.3304 -0.2680
vn 0.4713 -0.6617 -0.5831
vn 0.1876 -0.7947 -0.5773
vn -0.0385 -0.6617 -0.7488
vn -0.4089 -0.6617 -0.6284
vn -0.4911 -0.7947 -0.3568
vn -0.7884 -0.6004 -0.1340
vn -0.7874 -0.5637 0.2494
vn -0.4763 -0.8124 0.3364
vn 0.7002 -0.6617 -0.2680
vn 0.6071 -0.7947 -0.0000
vn 0.2692 -0.9631 -0.0000
vn -0.0518 -0.7353 0.6758
vn 0.1815 -0.7966 0.5766
vn 0.4713 -0.6617 0.5831
vt 0.272728 0.157461
vt 0.951983 0.157461
vt 0.090910 0.157461
vt 0.798156 0.192147
vt 0.636364 0.157461
vt 0.454546 0.157461
vt 0.181819 0.314921
vt 0.685195 0.269239
vt 0.818300 0.472586
vt 0.090910 0.472382
vt 0.272728 0.472382
vt 0.540238 0.323957
vt 0.727273 0.000000
vt 0.545455 0.000000
vt 0.932126 0.039899
vt 0.363637 0.000000
vt 0.158784 0.039899
vt 0.318182 0.078731
vt 0.227273 0.078731
vt 0.181819 0.157461
vt 0.363637 0.157461
vt 0.500000 0.078731
vt 0.409092 0.078731
vt 0.772727 0.078731
vt 0.863636 0.078731
vt 0.590909 0.078731
vt 0.681818 0.078731
vt 0.727273 0.157461
vt 0.545455 0.157461
vt 0.318182 0.236191
vt 0.409092 0.236191
vt 0.227273 0.236191
vt 0.863636 0.236191
vt 0.954545 0.236191
vt 0.120449 0.236191
vt 0.500000 0.236191
vt 0.590909 0.236191
vt 0.371749 0.314921
vt 0.227273 0.393651
vt 0.118444 0.362612
vt 0.409092 0.393651
vt 0.284995 0.336169
vt 0.005823 0.325007
vt 0.888396 0.323244
s 0
usemtl Pierre
f 1/1/1 10/18/1 12/21/1
f 9/13/2 14/24/2 15/27/2
f 9/14/3 15/26/3 13/22/3
f 1/1/4 12/21/4 18/30/4
f 2/3/5 11/20/5 22/35/5
f 3/4/6 2/2/6 21/33/6
f 4/5/7 16/28/7 7/8/7
f 5/6/8 17/29/8 23/36/8
f 1/1/9 18/30/9 20/32/9
f 4/5/10 7/8/10 24/37/10
f 5/6/11 23/36/11 19/31/11
f 6/7/12 27/42/12 26/39/12
f 7/8/13 28/44/13 8/9/13
f 27/41/14 25/38/14 8/12/14
f 28/43/15 26/40/15 8/10/15
f 26/39/16 27/42/16 8/11/16
f 19/31/17 23/36/17 25/38/17
f 23/36/18 8/12/18 25/38/18
f 24/37/19 7/8/19 8/12/19
f 3/4/20 28/44/20 7/8/20
f 3/4/21 21/33/21 28/44/21
f 22/35/22 26/40/22 28/43/22
f 22/35/23 6/7/23 26/40/23
f 20/32/24 27/42/24 6/7/24
f 20/32/25 18/30/25 27/42/25
f 18/30/26 25/38/26 27/42/26
f 23/36/27 24/37/27 8/12/27
f 23/36/28 17/29/28 24/37/28
f 17/29/29 4/5/29 24/37/29
f 7/8/30 16/28/30 3/4/30
f 21/33/31 22/34/31 28/44/31
f 21/33/32 2/2/32 22/34/32
f 22/35/33 20/32/33 6/7/33
f 22/35/34 11/20/34 20/32/34
f 11/20/35 1/1/35 20/32/35
f 18/30/36 19/31/36 25/38/36
f 18/30/37 12/21/37 19/31/37
f 12/21/38 5/6/38 19/31/38
f 13/22/39 17/29/39 5/6/39
f 13/22/40 15/26/40 17/29/40
f 15/26/41 4/5/41 17/29/41
f 15/27/42 16/28/42 4/5/42
f 15/27/43 14/24/43 16/28/43
f 14/24/44 3/4/44 16/28/44
f 14/25/45 2/2/45 3/4/45
f 14/25/46 9/15/46 2/2/46
f 12/21/47 13/23/47 5/6/47
f 12/21/48 10/18/48 13/23/48
f 10/18/49 9/16/49 13/23/49
f 9/17/50 11/20/50 2/3/50
f 9/17/51 10/19/51 11/20/51
f 10/19/52 1/1/52 11/20/52
